<svg width="65" height="52" viewBox="0 0 65 52" fill="none" xmlns="http://www.w3.org/2000/svg">
<path d="M1.6351 32.0001L9.1351 5.50008C10.8018 2.83341 15.1351 -0.89992 19.1351 5.50008" stroke="black" stroke-width="2"/>
<path d="M62.6351 31.0338L55.1351 4.53377C53.4684 1.8671 49.1351 -1.86623 45.1351 4.53377" stroke="black" stroke-width="2"/>
<path d="M1.13512 32.5006C10.3351 17.7006 22.3018 26.0006 27.1351 32.0006C27.1351 47.6006 17.8018 50.5005 13.1351 50.0005C1.93512 50.4005 0.46845 38.5005 1.13512 32.5006Z" stroke="black" stroke-width="2"/>
<path d="M38.1351 31.8066C42.9684 25.8066 53.9351 17.0062 63.1351 31.8062C63.8018 37.8062 63.3351 50.2065 52.1351 49.8065C47.4684 50.3066 38.1351 47.4067 38.1351 31.8066ZM38.1351 31.8066H27.1351" stroke="black" stroke-width="2"/>
</svg>
